<?xml version="1.0" encoding="iso-8859-1"?>
<!-- Generator: Adobe Illustrator 19.0.0, SVG Export Plug-In . SVG Version: 6.00 Build 0)  -->
<svg version="1.1" id="Capa_1" xmlns="http://www.w3.org/2000/svg" xmlns:xlink="http://www.w3.org/1999/xlink" x="0px" y="0px"
	 viewBox="0 0 496.182 496.182" style="enable-background:new 0 0 496.182 496.182;" xml:space="preserve">
<path style="fill:#89A74D;" d="M415.291,108.182c0-1.6,0.8-2.4,0.8-4c0-5.6-1.6-10.4-4.8-14.4c7.2-8,6.4-20.8-1.6-28
	s-20.8-6.4-28,1.6l0,0c-5.6-7.2-15.2-9.6-22.4-4c-4,2.4-6.4,7.2-6.4,11.2c-9.6-8.8-24.8-8.8-33.6,0.8c-6.4,6.4-8,16-4.8,24.8
	c-0.8,0-0.8,0-1.6,0c-8.8,0-16,7.2-16,16c0,3.2,0.8,5.6,2.4,8.8c-0.8,0-1.6,0-2.4,0c-13.6,0-24,10.4-24,24s10.4,24,24,24
	c4,0,7.2-0.8,10.4-2.4c-2.4,2.4-3.2,5.6-3.2,9.6c0,13.6,10.4,24,24,24c7.2,0,14.4-3.2,18.4-8.8c6.4,14.4,22.4,20.8,36.8,14.4
	c14.4-6.4,20.8-22.4,14.4-36.8c0-0.8,0-0.8-0.8-1.6c0.8,0,1.6,0,3.2,0c17.6,0,32-14.4,32-32
	C432.091,124.982,425.691,113.782,415.291,108.182L415.291,108.182z"/>
<path d="M372.091,216.182c-10.4,0-20.8-4.8-27.2-12.8c-5.6,3.2-11.2,4.8-16.8,4.8c-17.6,0-32-14.4-32-32c-17.6,0-32-14.4-32-32
	c0-14.4,9.6-27.2,24-31.2v-0.8c0-10.4,6.4-19.2,16-22.4c0-0.8,0-0.8,0-1.6c0-17.6,14.4-32,32-32c4,0,8,0.8,12,2.4
	c7.2-11.2,22.4-13.6,32.8-6.4l0,0c4.8-2.4,10.4-4,15.2-4c15.2,0,28,12.8,28,28c0,4.8-1.6,9.6-3.2,13.6c2.4,4.8,3.2,9.6,3.2,14.4l0,0
	c17.6,12.8,21.6,38.4,8,56c-5.6,8-14.4,13.6-24,15.2c0,1.6,0,3.2,0,4.8C408.091,200.182,392.091,216.182,372.091,216.182z
	 M346.491,183.382h0.8c2.4,0,4.8,2.4,6.4,4.8c4.8,10.4,16,14.4,26.4,10.4c7.2-3.2,12-10.4,12-18.4c0-3.2-0.8-6.4-2.4-8.8
	c-1.6-4,0-8.8,4-10.4c1.6-0.8,2.4-0.8,4-0.8h1.6h0.8c13.6,0,24-10.4,24-24c0-8.8-4.8-16.8-12-20.8c-3.2-1.6-4.8-4.8-4-8
	c0-0.8,0-1.6,0-3.2c0-3.2-1.6-7.2-3.2-9.6c-2.4-3.2-2.4-7.2,0-10.4c2.4-2.4,3.2-4.8,3.2-8c0-6.4-5.6-12-12-12c-3.2,0-6.4,1.6-8.8,4
	c-1.6,1.6-4,3.2-6.4,2.4c-2.4,0-4.8-1.6-6.4-3.2c-2.4-3.2-7.2-4.8-11.2-2.4c-1.6,1.6-3.2,4-3.2,6.4c-0.8,4-4,7.2-8.8,7.2
	c-1.6,0-3.2-0.8-4.8-2.4c-6.4-6.4-16.8-5.6-22.4,0.8c-4,4.8-5.6,11.2-3.2,16.8c1.6,4-0.8,8.8-4.8,10.4c-0.8,0-2.4,0-3.2,0h-0.8l0,0
	c-4,0-8,4-8,8c0,1.6,0.8,3.2,0.8,4c2.4,4,0.8,8.8-2.4,11.2c-1.6,0.8-3.2,0.8-4.8,0.8h-0.8l0,0c-8.8,0-16,6.4-16,15.2s6.4,16,15.2,16
	c2.4,0,4.8-0.8,7.2-1.6c4-1.6,8.8,0,10.4,4c0.8,2.4,0.8,4.8,0,7.2c-0.8,2.4-1.6,4.8-1.6,7.2c0,8.8,7.2,16,16,16
	c4.8,0,9.6-2.4,12.8-5.6C341.691,184.182,344.091,183.382,346.491,183.382z"/>
<polyline style="fill:#BFA879;" points="216.091,280.182 216.091,168.182 40.091,168.182 40.091,280.182 "/>
<path d="M224.091,280.182h-16v-104h-160v104h-16v-112c0-4.8,3.2-8,8-8h176c4.8,0,8,3.2,8,8V280.182z"/>
<polyline style="fill:#8F6D45;" points="72.091,280.182 72.091,200.182 120.091,200.182 120.091,280.182 "/>
<path d="M128.091,280.182h-16v-72h-32v72h-16v-80c0-4.8,3.2-8,8-8h48c4.8,0,8,3.2,8,8V280.182z"/>
<rect x="152.091" y="200.182" style="fill:#8F6D45;" width="32" height="32"/>
<path d="M184.091,240.182h-32c-4.8,0-8-3.2-8-8v-32c0-4.8,3.2-8,8-8h32c4.8,0,8,3.2,8,8v32
	C192.091,236.982,188.891,240.182,184.091,240.182z M160.091,224.182h16v-16h-16V224.182z"/>
<polygon style="fill:#8F6D45;" points="8.091,168.182 128.091,88.182 248.091,168.182 "/>
<path d="M248.091,176.182h-240c-4.8,0-8-3.2-8-8c0-2.4,1.6-4.8,3.2-6.4l120-80c2.4-1.6,6.4-1.6,8.8,0l120,80c4,2.4,4.8,7.2,2.4,11.2
	C252.891,174.582,250.491,176.182,248.091,176.182z M34.491,160.182h187.2l-93.6-62.4L34.491,160.182z"/>
<path style="fill:#ADA08F;" d="M104.091,56.182c8.8,0,16-7.2,16-16s-7.2-16-16-16c-0.8,0-1.6,0-2.4,0c-4-8-13.6-10.4-21.6-6.4
	c-1.6,0.8-2.4,1.6-3.2,2.4c-6.4-11.2-20.8-16-32-9.6c-6.4,3.2-10.4,8.8-12,16c-7.2-4.8-17.6-2.4-22.4,4.8s-2.4,17.6,4.8,22.4
	c2.4,1.6,5.6,2.4,8.8,2.4H104.091z"/>
<path d="M104.091,64.182h-80c-13.6,0-24-10.4-24-24s10.4-24,24-24c1.6,0,2.4,0,4,0c8.8-15.2,28-20.8,43.2-12
	c2.4,1.6,5.6,3.2,7.2,5.6c9.6-3.2,20.8-0.8,27.2,6.4c13.6,0.8,23.2,12.8,22.4,25.6S116.891,64.182,104.091,64.182z M24.091,32.182
	c-4.8,0-8,3.2-8,8s3.2,8,8,8h80c4.8,0,8-3.2,8-8s-3.2-8-8-8h-0.8c-3.2,0.8-6.4-0.8-8-4c-2.4-4-7.2-4.8-11.2-2.4
	c-0.8,0-0.8,0.8-1.6,0.8c-3.2,3.2-8,3.2-11.2,0c-0.8-0.8-0.8-1.6-1.6-2.4c-4-7.2-13.6-10.4-20.8-6.4c-4.8,2.4-7.2,6.4-8,10.4
	c-1.6,4.8-5.6,7.2-9.6,6.4c-0.8,0-1.6-0.8-2.4-0.8C27.291,32.982,25.691,32.182,24.091,32.182z"/>
<path style="fill:#ADA08F;" d="M272.091,72.182c8.8,0,16-7.2,16-16s-7.2-16-16-16c-0.8,0-1.6,0-2.4,0c-4-8-13.6-10.4-21.6-6.4
	c-1.6,0.8-2.4,1.6-3.2,2.4c-6.4-11.2-20.8-16-32-9.6c-6.4,3.2-10.4,8.8-12,16c-7.2-4.8-17.6-2.4-22.4,4.8
	c-4.8,7.2-2.4,17.6,4.8,22.4c2.4,1.6,5.6,2.4,8.8,2.4H272.091z"/>
<path d="M272.091,80.182h-80c-13.6,0-24-10.4-24-24s10.4-24,24-24c1.6,0,2.4,0,4,0c8.8-15.2,28-20.8,43.2-12
	c2.4,1.6,5.6,3.2,7.2,5.6c9.6-3.2,20.8-0.8,27.2,6.4c13.6,0.8,23.2,12.8,22.4,25.6C295.291,70.582,284.891,80.182,272.091,80.182z
	 M192.091,48.182c-4.8,0-8,3.2-8,8s3.2,8,8,8h80c4.8,0,8-3.2,8-8s-3.2-8-8-8h-0.8c-3.2,0.8-6.4-0.8-8-4c-2.4-4-7.2-4.8-11.2-2.4
	c-0.8,0-0.8,0.8-1.6,0.8c-3.2,3.2-8,3.2-11.2,0c-0.8-0.8-0.8-0.8-1.6-1.6c-4-8-13.6-10.4-21.6-6.4c-4,2.4-7.2,5.6-8,10.4
	c-0.8,4-5.6,7.2-9.6,5.6c-0.8,0-1.6-0.8-2.4-0.8C195.291,48.982,193.691,48.182,192.091,48.182z"/>
<path d="M360.091,280.182h-16v-116l-28.8-21.6l9.6-12.8l32,24c2.4,1.6,3.2,4,3.2,6.4L360.091,280.182z"/>
<path d="M352.091,168.182c-4.8,0-8-3.2-8-8v-56h16v40l19.2-14.4l9.6,12.8l-32,24C355.291,167.382,353.691,168.182,352.091,168.182z"
	/>
<rect x="328.091" y="224.182" width="24" height="16"/>
<rect x="352.091" y="240.182" width="24" height="16"/>
<path style="fill:#4E6F3A;" d="M416.091,280.182c-8.8,0-16-7.2-16-16s7.2-16,16-16c3.2,0,5.6,0.8,8.8,2.4c0-0.8,0-1.6,0-2.4
	c0-8.8,7.2-16,16-16c3.2,0,5.6,0.8,8.8,2.4c0-0.8,0-1.6,0-2.4c0-8.8,7.2-16,16-16s16,7.2,16,16c0,4-1.6,8-4.8,11.2
	c8,4,12.8,12,12.8,20.8v16"/>
<path d="M416.091,288.182c-13.6,0-24-11.2-23.2-24.8s11.2-24,24.8-23.2c3.2-10.4,13.6-16.8,24-16c4.8-12.8,18.4-19.2,30.4-14.4
	c12.8,4.8,19.2,18.4,14.4,30.4v0.8c6.4,5.6,9.6,14.4,9.6,23.2v16h-16v-16c0-5.6-3.2-11.2-8-13.6c-4-2.4-5.6-7.2-3.2-11.2
	c0-0.8,0.8-0.8,1.6-1.6c3.2-3.2,3.2-8,0-11.2s-8-3.2-11.2,0c-2.4,1.6-3.2,3.2-3.2,5.6v0.8c0.8,3.2-0.8,6.4-3.2,8
	c-2.4,1.6-5.6,1.6-8.8,0c-4-2.4-8.8-0.8-11.2,3.2c0,1.6-0.8,2.4-0.8,4v0.8c0.8,3.2-0.8,6.4-3.2,8c-2.4,1.6-5.6,1.6-8.8,0
	c-4-2.4-8.8-0.8-11.2,2.4c-2.4,4-0.8,8.8,2.4,11.2c1.6,1.6,3.2,1.6,4.8,1.6V288.182z"/>
<polygon style="fill:#976750;" points="488.091,280.182 488.091,488.182 8.091,488.182 8.091,280.182 240.091,280.182 
	264.091,320.182 224.091,368.182 264.091,408.182 256.091,456.182 312.091,384.182 280.091,352.182 328.091,320.182 
	320.091,280.182 "/>
<path d="M488.091,496.182h-480c-4.8,0-8-3.2-8-8v-208c0-4.8,3.2-8,8-8h232c3.2,0,5.6,1.6,7.2,4l24,40c1.6,3.2,1.6,6.4-0.8,9.6
	l-35.2,42.4l35.2,35.2c1.6,1.6,2.4,4.8,2.4,7.2l-2.4,16.8l32-41.6l-27.2-27.2c-3.2-3.2-3.2-8,0-11.2c0,0,0.8-0.8,1.6-0.8l43.2-28.8
	l-8-36c-0.8-4,1.6-8.8,6.4-9.6c0.8,0,0.8,0,1.6,0h168c4.8,0,8,3.2,8,8v208C496.091,492.982,492.891,496.182,488.091,496.182z
	 M16.091,480.182h464v-192h-150.4l6.4,30.4c0.8,3.2-0.8,6.4-3.2,8l-40,26.4l24.8,24.8c3.2,3.2,3.2,7.2,0.8,10.4l-56,72
	c-2.4,3.2-8,4-11.2,1.6c-2.4-1.6-3.2-4.8-3.2-8l7.2-44l-36.8-36.8c-3.2-3.2-3.2-8-0.8-10.4l36-44l-18.4-30.4h-219.2V480.182z"/>
<rect x="32.091" y="304.182" width="16" height="16"/>
<rect x="64.091" y="336.182" width="16" height="16"/>
<rect x="32.091" y="368.182" width="16" height="16"/>
<rect x="96.091" y="304.182" width="16" height="16"/>
<rect x="128.091" y="336.182" width="16" height="16"/>
<rect x="96.091" y="368.182" width="16" height="16"/>
<rect x="160.091" y="304.182" width="16" height="16"/>
<rect x="192.091" y="336.182" width="16" height="16"/>
<rect x="160.091" y="368.182" width="16" height="16"/>
<rect x="352.091" y="304.182" width="16" height="16"/>
<rect x="384.091" y="336.182" width="16" height="16"/>
<rect x="352.091" y="368.182" width="16" height="16"/>
<rect x="416.091" y="304.182" width="16" height="16"/>
<rect x="448.091" y="336.182" width="16" height="16"/>
<rect x="416.091" y="368.182" width="16" height="16"/>
<g>
</g>
<g>
</g>
<g>
</g>
<g>
</g>
<g>
</g>
<g>
</g>
<g>
</g>
<g>
</g>
<g>
</g>
<g>
</g>
<g>
</g>
<g>
</g>
<g>
</g>
<g>
</g>
<g>
</g>
</svg>
